<?xml version="1.0" encoding="UTF-8"?><svg id="Layer_1" xmlns="http://www.w3.org/2000/svg" viewBox="0 0 1920 1080"><defs><style>.cls-1,.cls-2{fill:#856da6;}.cls-3{fill:none;stroke:#856da6;stroke-miterlimit:10;stroke-width:10px;}.cls-2{font-family:Montserrat-Regular, Montserrat;font-size:179.89px;}</style></defs><text class="cls-2" transform="translate(546.24 739.52)"><tspan x="0" y="0">BINVENT</tspan></text><g><path class="cls-1" d="m1115.23,317.71v205.43h-24.65v-205.43h24.65Zm-32.87,0v205.43h-8.22v-205.43h8.22Zm-16.43,0v205.43h-49.3v-205.43h49.3Zm-61.63,0v205.43h-8.22v-205.43h8.22Zm-16.43,0v205.43h-8.22v-205.43h8.22Zm-16.43,0v205.43h-8.22v-205.43h8.22Zm-16.43,0v205.43h-32.87v-205.43h32.87Zm-45.2,0v205.43h-20.54v-205.43h20.54Zm-28.76,0v205.43h-8.22v-205.43h8.22Zm-16.43,0v205.43h-16.43v-205.43h16.43Zm-28.76,0v205.43h-8.22v-205.43h8.22Zm-16.43,0v205.43h-16.43v-205.43h16.43Z"/><g><g><polyline class="cls-3" points="856.47 293.35 769.74 293.35 769.74 369.51"/><polyline class="cls-3" points="1061.74 293.35 1148.47 293.35 1148.47 369.51"/></g><g><polyline class="cls-3" points="856.47 547.51 769.74 547.51 769.74 471.35"/><polyline class="cls-3" points="1061.74 547.51 1148.47 547.51 1148.47 471.35"/></g></g></g></svg>